PathFileType	4	(X/Y/Z)	Patient4_TMGait_0pt8_01_left_48.trc.trc
DataRate	CameraRate	NumFrames	NumMarkers	Units	OrigDataRate	OrigDataStartFrame	OrigNumFrames
86.956521739130	86.956521739130	4	33	mm	86.956521739130	18	       141
Frame#	Time	Sacral			L.Shoulder			Chest			R.Shoulder			Neck			R.ASIS			L.ASIS			R.Thigh.Superior			R.Thigh.Lateral			R.Thigh.Inferior			R.Patella			L.Thigh.Superior			L.Thigh.Lateral			L.Thigh.Inferior			L.Patella			L.Shank.Superior			L.Shank.Lateral			L.Shank.Inferior			R.Shank.Superior			R.Shank.Lateral			R.Shank.Inferior			R.Heel			R.Midfoot.Superior			R.Midfoot.Lateral			R.Toe			L.Heel			L.Midfoot.Lateral			L.Midfoot.Superior			L.Toe			L.Elbow			L.Wrist			R.Elbow			R.Wrist			
		X1	Y1	Z1	X2	Y2	Z2	X3	Y3	Z3	X4	Y4	Z4	X5	Y5	Z5	X6	Y6	Z6	X7	Y7	Z7	X8	Y8	Z8	X9	Y9	Z9	X10	Y10	Z10	X11	Y11	Z11	X12	Y12	Z12	X13	Y13	Z13	X14	Y14	Z14	X15	Y15	Z15	X16	Y16	Z16	X17	Y17	Z17	X18	Y18	Z18	X19	Y19	Z19	X20	Y20	Z20	X21	Y21	Z21	X22	Y22	Z22	X23	Y23	Z23	X24	Y24	Z24	X25	Y25	Z25	X26	Y26	Z26	X27	Y27	Z27	X28	Y28	Z28	X29	Y29	Z29	X30	Y30	Z30	X31	Y31	Z31	X32	Y32	Z32	X33	Y33	Z33	

18	53.635500000000	882.262686764250	1004.274651681875	542.046701616085	1047.691464822317	1419.349562716037	334.785571216012	1170.404121424536	1348.649803165533	481.615549322590	1117.391279517326	1430.564829228164	662.628457736828	1056.839971478576	1484.695814561063	489.184747146896	1113.645629201462	933.010597044135	636.974424427016	1076.184295750627	949.618708644664	363.294937131501	1104.665302805594	719.027462645996	612.361934042573	997.575961448377	629.217290531291	677.106960158159	1053.125808498743	561.236049429592	596.492808282143	1031.473149033673	478.421672962654	601.696782424082	1155.718557754475	774.875047138240	397.386193573893	1119.051707068125	648.183465438560	311.498493674055	1222.246595773276	591.780434012430	378.108524663160	1254.679959709514	530.967854282979	371.265885601510	1242.220779481972	458.904856492742	358.888284959200	1187.777121354116	324.362197350801	304.748942507179	1283.200453506375	232.034367745745	358.977084732948	993.290978559916	395.765849651535	609.240589045473	909.914687764131	301.112280947682	670.059439053173	939.340141684887	202.214111090197	605.854013911005	789.051305406231	44.644884483773	573.755904175351	959.374149193109	96.620390053810	614.170469431384	869.390343214831	37.608186074736	650.942662353587	1077.773032528932	42.718704189607	648.004636343675	1216.478216994076	44.115389435067	394.749766140219	1293.581999818547	53.604011561238	317.995752496061	1354.858243126408	139.751290533266	338.945774691196	1492.047670107752	124.229159869661	319.701130169654	916.692859033390	1084.790502466227	254.507137283985	885.481215703343	827.642194201236	274.580216181672	1280.778698280911	1138.534396552372	769.581394490802	1468.905739598881	1273.445495907354	677.648105637805	
19	53.647000000000	883.382106070579	1003.074480924848	540.644658013026	1047.046575575022	1418.319689682722	333.407173285997	1170.661290704003	1347.549425359888	479.491852688945	1118.347691916209	1429.516276248325	660.549542750847	1056.767946796393	1483.327584210746	487.763754914996	1114.674480839848	931.246678283920	634.918299036442	1076.984669557050	948.092513645908	361.252993273563	1102.966388081570	716.815762484503	610.980759920670	994.616515523135	628.333779825192	676.034149599839	1049.024459785387	559.646479211823	595.336421804796	1026.369865477597	477.007358601348	600.609334105806	1155.912466977888	772.800537753035	396.380535648167	1118.337324740312	645.846256025291	310.798055373302	1221.217639175511	589.307487674750	377.359355048644	1253.315754729293	529.005612818234	371.110219449333	1241.857666821901	457.192594388685	358.672735970843	1189.180692883418	321.640319169866	305.513910177090	1286.218893938558	231.085473201726	359.874365956937	987.379164300746	394.765851719450	608.437925389130	903.102954580856	300.985591116552	669.534590163039	931.375532343576	201.717231685717	605.484313720861	779.863389313851	44.783662695769	573.710839794247	950.205927198131	96.587169380031	614.062792674544	860.160004986994	37.689576950782	650.913581745560	1068.488049692215	42.573180021162	648.085453202680	1222.509932136050	42.730657711794	396.683123950738	1299.387408613436	52.495816849006	319.776966045687	1359.664927546085	139.318147969693	340.232361617352	1497.071837339251	125.130507613769	320.996054918723	909.520608233922	1087.052986529924	254.260080938048	873.361062240218	830.549128931489	275.050690506254	1290.140526552963	1144.130247444818	766.629170250468	1468.778129772898	1289.455322415619	673.090568057127	
20	53.658500000000	884.648495422209	1001.708859928616	538.979427644538	1046.477935522289	1417.144126148875	331.842856900729	1170.932127283129	1346.411294202668	477.264797480735	1119.135244810774	1428.387316156530	658.351921842437	1056.674877291761	1481.838094952574	486.186824452423	1115.815211872484	929.364311426235	632.792351495262	1078.088009093319	946.422670078545	359.105253558956	1101.625039768573	714.533624850320	609.419206315819	992.186349476301	627.266470375644	674.786859326841	1045.560999404205	557.934654838412	593.989052259721	1021.905142151696	475.360278211721	599.312069692312	1156.768906527350	770.869632964140	395.205668911498	1118.016691850032	643.397631111056	310.363270194843	1220.855122545774	586.947867569218	376.477447130395	1252.366536515055	526.665762183565	370.911323550635	1241.413603750480	454.910723468196	358.504034167228	1189.251147582762	318.887571462014	306.549047926087	1287.119625427868	229.329675820393	360.926499645675	982.014592168772	393.512158983764	607.433865493900	896.727464719471	300.782564969891	668.895011972653	923.632614416094	201.107296562622	605.033299458740	770.683296629310	44.966793029113	573.674680787102	941.079161911812	96.575705170485	613.949398168492	850.950552651449	37.803969275736	650.891380182085	1059.225410819284	42.380588581974	648.179828652285	1224.798716452431	41.493344880356	399.035424648048	1301.080956638879	50.996556362281	321.587795598311	1361.362847116232	137.600995115276	341.507592630455	1498.596080302696	123.269879905313	321.462357737919	903.125264763406	1089.003661339707	254.002778127372	862.149506825168	833.209576361779	275.205545127675	1298.560937993229	1149.521035458305	763.707724495245	1467.981958086860	1303.800286446616	668.745846093738	
21	53.670000000000	886.039453004071	1000.180256864495	537.052729788814	1046.014406661506	1415.812477556757	330.080956173146	1171.219800680368	1345.227785537329	474.946697294999	1119.743073628594	1427.176285242362	656.048426116565	1056.572177990503	1480.235271850191	484.443382246712	1117.054025656613	927.379058211040	630.621187696551	1079.480337340128	944.620078272671	356.881964257824	1100.690425809609	712.197205852375	607.703893721273	990.324327789593	626.002982251666	673.354511258311	1042.808740721041	556.084030241458	592.464082160503	1018.150883118602	473.439680178560	597.809241408024	1158.253305311859	769.062503225092	393.845273724918	1118.068867777422	640.874679366137	310.137549787209	1221.125028494119	584.715645977341	375.476994081927	1251.806985847761	524.003046875466	370.692247062074	1240.951963832983	452.139465920303	358.389871930675	1188.254527321892	316.091273642387	307.710845119045	1286.229826586716	226.810633862770	362.084664175851	977.237257692756	391.988116202130	606.226503912384	890.819800819519	300.505486649220	668.142653159887	916.124986877270	200.390227416933	604.503606132383	761.501728611052	45.229295710021	573.668863402032	932.004479718193	96.596350893769	613.845801141032	841.761673113861	37.965431210880	650.884782716359	1049.996597464589	42.135428582785	648.288138126626	1223.743341191625	40.356572032255	401.602785340618	1299.169270315256	49.112974308199	323.313734944397	1360.403162515102	134.656894407916	342.769060522813	1497.141340870003	118.756942057153	321.271198521201	897.570764041521	1090.555024641883	253.686807248543	851.902960956162	835.553727879237	275.033915895671	1306.006942035412	1154.584328550832	760.844753338000	1466.636072239711	1316.494773575370	664.620974544012	
